HIERARCHY
ROOT joint_0
{
	OFFSET 0.000000 0.000000 0.000000
	CHANNELS 6 Xposition Yposition Zposition Zrotation Yrotation Xrotation 
	JOINT joint_1
	{
		OFFSET 6.579712 -2.778931 100.531982
		CHANNELS 3 Zrotation Yrotation Xrotation
		JOINT joint_2
		{
			OFFSET -3.313232 -1.302856 91.974976
			CHANNELS 3 Zrotation Yrotation Xrotation
			JOINT joint_3
			{
				OFFSET -3.421509 -1.641846 91.864014
				CHANNELS 3 Zrotation Yrotation Xrotation
				JOINT joint_4
				{
					OFFSET 7.697388 -4.642578 123.278931
					CHANNELS 3 Zrotation Yrotation Xrotation
					JOINT joint_5
					{
						OFFSET 24.842529 -5.941528 79.695068
						CHANNELS 3 Zrotation Yrotation Xrotation
						End Site
						{
							OFFSET 0.000000 0.000000 0.000000
						}
					}
				}
				JOINT joint_6
				{
					OFFSET -0.159668 -29.112976 68.364014
					CHANNELS 3 Zrotation Yrotation Xrotation
					JOINT joint_7
					{
						OFFSET -18.356079 -115.987061 -20.069092
						CHANNELS 3 Zrotation Yrotation Xrotation
						JOINT joint_8
						{
							OFFSET 31.719482 -11.733276 -267.170898
							CHANNELS 3 Zrotation Yrotation Xrotation
							JOINT joint_9
							{
								OFFSET 29.329956 -5.879517 -234.654053
								CHANNELS 3 Zrotation Yrotation Xrotation
								End Site
								{
									OFFSET 0.000000 0.000000 0.000000
								}
							}
						}
					}
				}
				JOINT joint_10
				{
					OFFSET 8.802979 23.897949 69.798950
					CHANNELS 3 Zrotation Yrotation Xrotation
					JOINT joint_11
					{
						OFFSET 21.159058 115.524292 -19.981934
						CHANNELS 3 Zrotation Yrotation Xrotation
						JOINT joint_12
						{
							OFFSET 18.809204 5.403442 -268.593018
							CHANNELS 3 Zrotation Yrotation Xrotation
							JOINT joint_13
							{
								OFFSET 20.807861 0.421265 -235.639038
								CHANNELS 3 Zrotation Yrotation Xrotation
								End Site
								{
									OFFSET 0.000000 0.000000 0.000000
								}
							}
						}
					}
				}
			}
		}
	}
	JOINT joint_14
	{
		OFFSET -9.713379 -79.513916 -99.348022
		CHANNELS 3 Zrotation Yrotation Xrotation
		JOINT joint_15
		{
			OFFSET -40.607788 -6.518372 -502.938019
			CHANNELS 3 Zrotation Yrotation Xrotation
			JOINT joint_16
			{
				OFFSET -19.807617 -7.437378 -399.590012
				CHANNELS 3 Zrotation Yrotation Xrotation
				JOINT joint_17
				{
					OFFSET 171.701660 -44.751282 -77.782000
					CHANNELS 3 Zrotation Yrotation Xrotation
					End Site
					{
						OFFSET 0.000000 0.000000 0.000000
					}
				}
			}
		}
	}
	JOINT joint_18
	{
		OFFSET 17.854858 79.618652 -98.128052
		CHANNELS 3 Zrotation Yrotation Xrotation
		JOINT joint_19
		{
			OFFSET -24.848877 16.861816 -503.722992
			CHANNELS 3 Zrotation Yrotation Xrotation
			JOINT joint_20
			{
				OFFSET -30.162476 14.470093 -398.750008
				CHANNELS 3 Zrotation Yrotation Xrotation
				JOINT joint_21
				{
					OFFSET 176.096680 -10.987549 -80.021000
					CHANNELS 3 Zrotation Yrotation Xrotation
					End Site
					{
						OFFSET 0.000000 0.000000 0.000000
					}
				}
			}
		}
	}
}
MOTION
Frames: 13
Frame Time: 0.016667
-2234.304932 797.213013 1093.230957 6.644278 -0.231163 1.501659 0.102187 -2.216585 -1.912714 0.247593 0.304356 0.387839 0.208710 -0.476768 -0.306843 -0.293982 1.410196 1.272704 0.000000 0.000000 0.000000 -0.633276 3.901224 -0.135395 0.196307 3.227152 3.269354 -0.623150 0.850349 -4.498658 0.000000 0.000000 0.000000 -2.013009 1.631802 1.045507 0.015240 2.380566 -1.139191 0.154711 -1.783863 1.959908 0.000000 0.000000 0.000000 -1.275885 5.010285 -3.659592 -1.655731 -1.773827 2.479594 -1.449572 -2.400467 -1.277732 0.000000 0.000000 0.000000 0.997046 2.447953 0.261153 1.036982 -0.365404 -2.310436 0.808620 -1.512767 0.272440 0.000000 0.000000 0.000000 
-2234.284424 797.066284 1093.203003 6.650935 -0.237904 1.499860 0.100258 -2.224090 -1.898737 0.245278 0.304433 0.385174 0.206587 -0.475582 -0.304933 -0.293846 1.417321 1.273897 0.000000 0.000000 0.000000 -0.633410 3.908215 -0.129865 0.192737 3.239984 3.241821 -0.622128 0.850153 -4.491434 0.000000 0.000000 0.000000 -2.005488 1.643664 1.024785 0.016104 2.385444 -1.128003 0.154371 -1.789716 1.956739 0.000000 0.000000 0.000000 -1.279011 5.009930 -3.655276 -1.659626 -1.757269 2.491336 -1.452650 -2.394735 -1.277634 0.000000 0.000000 0.000000 0.992106 2.445723 0.274476 1.033593 -0.344736 -2.312335 0.803960 -1.528733 0.269329 0.000000 0.000000 0.000000 
-2234.268311 796.921753 1093.177002 6.659112 -0.244248 1.497907 0.098586 -2.230621 -1.885235 0.243201 0.303487 0.382643 0.204756 -0.474435 -0.301794 -0.294352 1.421680 1.276499 0.000000 0.000000 0.000000 -0.634184 3.914597 -0.124442 0.189170 3.252067 3.214342 -0.621391 0.851004 -4.485930 0.000000 0.000000 0.000000 -1.999217 1.655522 1.003550 0.016868 2.390710 -1.118381 0.154074 -1.796605 1.954307 0.000000 0.000000 0.000000 -1.282699 5.009817 -3.650508 -1.663967 -1.742538 2.502405 -1.456259 -2.388065 -1.277530 0.000000 0.000000 0.000000 0.986973 2.442176 0.287354 1.030012 -0.323153 -2.313357 0.799132 -1.544907 0.266129 0.000000 0.000000 0.000000 
-2234.257080 796.782349 1093.150024 6.667506 -0.251059 1.495731 0.095842 -2.238785 -1.869855 0.240035 0.304503 0.379314 0.201758 -0.474775 -0.300147 -0.295360 1.424522 1.280354 0.000000 0.000000 0.000000 -0.631384 3.920218 -0.119452 0.185526 3.263989 3.186585 -0.620703 0.851091 -4.480950 0.000000 0.000000 0.000000 -1.991166 1.668107 0.982679 0.017793 2.396008 -1.106145 0.153652 -1.801316 1.949994 0.000000 0.000000 0.000000 -1.286417 5.009574 -3.646191 -1.668475 -1.726636 2.514535 -1.459918 -2.382557 -1.277752 0.000000 0.000000 0.000000 0.981583 2.438944 0.300072 1.026141 -0.301633 -2.314145 0.794029 -1.561602 0.262772 0.000000 0.000000 0.000000 
-2234.250244 796.649353 1093.121948 6.675466 -0.258510 1.493500 0.091524 -2.247956 -1.853393 0.235253 0.305267 0.375037 0.197231 -0.475221 -0.297221 -0.295726 1.426052 1.281901 0.000000 0.000000 0.000000 -0.621261 3.925403 -0.117681 0.181740 3.276262 3.158724 -0.619976 0.847739 -4.476354 0.000000 0.000000 0.000000 -1.980656 1.682327 0.959260 0.019080 2.401057 -1.088147 0.152927 -1.804705 1.941728 0.000000 0.000000 0.000000 -1.289760 5.009043 -3.642905 -1.672836 -1.708996 2.528326 -1.463248 -2.379075 -1.278352 0.000000 0.000000 0.000000 0.976233 2.436149 0.312383 1.022283 -0.279669 -2.314791 0.788880 -1.579980 0.259290 0.000000 0.000000 0.000000 
-2234.249512 796.521240 1093.093994 6.683504 -0.265702 1.491194 0.086461 -2.259609 -1.836626 0.229841 0.307787 0.371532 0.191984 -0.476303 -0.295015 -0.296448 1.425448 1.284111 0.000000 0.000000 0.000000 -0.607693 3.929970 -0.116699 0.177768 3.288558 3.129934 -0.619253 0.842393 -4.472173 0.000000 0.000000 0.000000 -1.969824 1.697237 0.934543 0.020594 2.405860 -1.066442 0.152028 -1.806267 1.931041 0.000000 0.000000 0.000000 -1.293011 5.007289 -3.640213 -1.677261 -1.689838 2.543005 -1.466527 -2.376889 -1.279268 0.000000 0.000000 0.000000 0.970682 2.432470 0.324343 1.018232 -0.257007 -2.315047 0.783518 -1.599290 0.255654 0.000000 0.000000 0.000000 
-2234.255615 796.391846 1093.066040 6.691122 -0.274029 1.488379 0.081213 -2.270615 -1.819232 0.224169 0.309034 0.367635 0.186525 -0.476710 -0.292673 -0.296656 1.425734 1.284887 0.000000 0.000000 0.000000 -0.594832 3.933930 -0.115824 0.173631 3.300459 3.099050 -0.618343 0.838750 -4.466383 0.000000 0.000000 0.000000 -1.959121 1.712077 0.910034 0.022091 2.410805 -1.045576 0.151451 -1.805691 1.923952 0.000000 0.000000 0.000000 -1.296270 5.006205 -3.636734 -1.681603 -1.670257 2.557334 -1.469725 -2.375058 -1.280241 0.000000 0.000000 0.000000 0.965390 2.429963 0.337174 1.014469 -0.235045 -2.316047 0.778439 -1.617825 0.252194 0.000000 0.000000 0.000000 
-2234.269043 796.259033 1093.037964 6.698707 -0.283287 1.484832 0.075702 -2.281820 -1.801450 0.218230 0.311098 0.363607 0.180794 -0.477697 -0.290006 -0.296552 1.429918 1.285554 0.000000 0.000000 0.000000 -0.584840 3.936993 -0.115145 0.169294 3.311417 3.065291 -0.617247 0.838067 -4.458741 0.000000 0.000000 0.000000 -1.948910 1.726661 0.886019 0.023469 2.416150 -1.027446 0.151493 -1.801661 1.923898 0.000000 0.000000 0.000000 -1.299597 5.005416 -3.631660 -1.685779 -1.650017 2.570290 -1.472789 -2.374292 -1.281431 0.000000 0.000000 0.000000 0.960368 2.428752 0.351703 1.011064 -0.214818 -2.318771 0.773713 -1.634694 0.248999 0.000000 0.000000 0.000000 
-2234.290527 796.124695 1093.010010 6.706669 -0.293507 1.480849 0.069577 -2.292275 -1.783846 0.211667 0.312062 0.360126 0.174446 -0.478294 -0.287177 -0.295824 1.435086 1.284463 0.000000 0.000000 0.000000 -0.575273 3.939355 -0.114786 0.164770 3.321924 3.029341 -0.616014 0.839286 -4.449725 0.000000 0.000000 0.000000 -1.937990 1.741410 0.861638 0.024854 2.421539 -1.009715 0.151820 -1.796204 1.927085 0.000000 0.000000 0.000000 -1.303114 5.005014 -3.625652 -1.690013 -1.629258 2.582482 -1.475936 -2.373764 -1.282723 0.000000 0.000000 0.000000 0.955215 2.428114 0.367036 1.007584 -0.194686 -2.322095 0.768893 -1.651196 0.245784 0.000000 0.000000 0.000000 
-2234.318115 795.991272 1092.984009 6.713346 -0.305002 1.477046 0.064558 -2.304889 -1.765726 0.206242 0.313620 0.355722 0.169268 -0.478412 -0.284461 -0.294896 1.441991 1.283143 0.000000 0.000000 0.000000 -0.566251 3.943279 -0.113585 0.160217 3.333953 2.993965 -0.614599 0.838330 -4.439887 0.000000 0.000000 0.000000 -1.928342 1.756555 0.836683 0.026379 2.427110 -0.990060 0.151926 -1.792003 1.927789 0.000000 0.000000 0.000000 -1.306158 5.005481 -3.620227 -1.693818 -1.608372 2.594815 -1.478675 -2.372474 -1.283632 0.000000 0.000000 0.000000 0.950446 2.427806 0.381753 1.004460 -0.172772 -2.324611 0.764407 -1.667593 0.242728 0.000000 0.000000 0.000000 
-2234.353760 795.856323 1092.958984 6.720405 -0.318745 1.474077 0.059687 -2.318307 -1.748938 0.201101 0.315961 0.351793 0.164313 -0.479599 -0.282167 -0.293494 1.449618 1.280486 0.000000 0.000000 0.000000 -0.555983 3.949687 -0.111729 0.155736 3.348455 2.960648 -0.613027 0.834352 -4.429520 0.000000 0.000000 0.000000 -1.916870 1.772687 0.811500 0.028113 2.432740 -0.967135 0.151525 -1.790978 1.922794 0.000000 0.000000 0.000000 -1.309516 5.007998 -3.615773 -1.697951 -1.587721 2.607020 -1.481773 -2.370280 -1.284467 0.000000 0.000000 0.000000 0.945328 2.427688 0.395202 1.000971 -0.147233 -2.325969 0.759498 -1.684403 0.239454 0.000000 0.000000 0.000000 
-2234.396240 795.721008 1092.936035 6.726625 -0.333839 1.471244 0.055770 -2.333419 -1.732946 0.197038 0.319225 0.348312 0.160418 -0.481111 -0.279460 -0.291756 1.458313 1.277013 0.000000 0.000000 0.000000 -0.546661 3.957784 -0.109679 0.151192 3.364501 2.927500 -0.611173 0.828161 -4.417619 0.000000 0.000000 0.000000 -1.906914 1.789516 0.784922 0.030010 2.438671 -0.941865 0.150844 -1.791525 1.914650 0.000000 0.000000 0.000000 -1.312391 5.011423 -3.611626 -1.701597 -1.566959 2.619046 -1.484437 -2.366897 -1.284798 0.000000 0.000000 0.000000 0.940522 2.427606 0.408132 0.997804 -0.119367 -2.326662 0.754849 -1.701666 0.236270 0.000000 0.000000 0.000000 
-2234.444824 795.590698 1092.911987 6.731369 -0.350037 1.468015 0.051994 -2.347958 -1.716504 0.193071 0.320400 0.344750 0.156641 -0.482657 -0.276932 -0.289777 1.470174 1.273491 0.000000 0.000000 0.000000 -0.539291 3.966316 -0.107716 0.146769 3.380440 2.895430 -0.609453 0.822451 -4.406674 0.000000 0.000000 0.000000 -1.896636 1.807183 0.759365 0.031768 2.446100 -0.919646 0.150273 -1.793157 1.907905 0.000000 0.000000 0.000000 -1.315089 5.016799 -3.607827 -1.705088 -1.548753 2.631792 -1.486971 -2.362931 -1.284918 0.000000 0.000000 0.000000 0.936184 2.429126 0.420283 0.994888 -0.092491 -2.325534 0.750598 -1.718831 0.233273 0.000000 0.000000 0.000000 
